<svg width="975.000000" height="1002.083435" viewBox="0 0 975 1002.08" fill="none" xmlns="http://www.w3.org/2000/svg" xmlns:xlink="http://www.w3.org/1999/xlink">
	<desc>
			Created with Pixso.
	</desc>
	<path id="path" d="M487.5 0L498.333 0.0541649C537.194 0.356125 575.942 2.61307 614.575 6.825L633.046 8.99166L652.6 11.7L671.802 14.7604L681.417 16.4396L700.321 20.0417C859.273 52.1896 970.64 120.954 974.865 211.331L975 785.417C975 878.421 862.387 949.271 700.321 982.042L681.417 985.644L671.802 987.323L652.6 990.356L633.046 993.065C587.004 998.969 538.119 1002.08 487.5 1002.08C436.881 1002.08 387.996 998.969 341.954 993.065L322.4 990.356L303.198 987.323C129.16 957.883 4.52292 886.41 0.135429 790.671L0 216.667C4.22501 126.29 115.727 52.1896 274.679 20.0417L293.583 16.4396L303.198 14.7604L322.4 11.7271L341.954 9.01878C383.113 3.80548 424.433 0.862427 465.915 0.18961L487.5 0ZM671.802 689.406L652.6 692.44L633.046 695.148C587.004 701.052 538.119 704.167 487.5 704.167C436.881 704.167 387.996 701.052 341.954 695.148L322.4 692.44L303.198 689.406C212.442 674.05 135.092 647.265 81.2501 611.569L81.2501 785.417C81.2501 812.013 111.936 839.719 163.854 863.092L176.231 868.4C195.325 876.254 216.856 883.54 240.473 890.013L256.533 894.21C272.865 898.273 290.117 902.01 308.073 905.26L326.327 908.375L345.042 911.165C357.69 912.925 370.635 914.469 383.852 915.769L403.867 917.556L424.26 918.964L445.033 919.994C473.344 921.114 501.656 921.114 529.967 919.994L550.74 918.964L571.133 917.556L591.175 915.769C604.365 914.469 617.311 912.925 629.958 911.165L648.673 908.375L666.927 905.26C684.911 902.01 702.135 898.3 718.467 894.21L734.527 890.013C758.144 883.513 779.675 876.254 798.769 868.4L811.146 863.092C861.061 840.613 891.367 814.152 893.615 788.477L893.75 611.542C839.936 647.265 762.585 674.05 671.802 689.406ZM893.75 340.708C842.59 374.644 770.25 400.508 685.29 416.19L671.748 418.573L652.573 421.606L633.019 424.315C586.977 430.219 538.092 433.333 487.473 433.333C444.085 433.333 401.971 431.058 361.806 426.671L341.927 424.315L322.373 421.606L303.171 418.573C212.415 403.217 135.065 376.431 81.2229 340.735L81.2229 487.5C81.2229 514.096 111.908 541.802 163.827 565.175L176.204 570.483C195.298 578.338 216.829 585.623 240.446 592.096L256.506 596.294C272.837 600.356 290.09 604.094 308.046 607.344L326.3 610.458L345.015 613.248C357.662 615.008 370.608 616.552 383.825 617.852L403.84 619.64L424.233 621.048L445.006 622.077C473.317 623.197 501.628 623.197 529.939 622.077L550.712 621.048L571.106 619.64L591.148 617.852C604.338 616.552 617.283 615.008 629.931 613.248L648.646 610.458L666.9 607.344C684.883 604.094 702.108 600.383 718.44 596.294L734.5 592.096C758.117 585.596 779.648 578.338 798.742 570.483L811.119 565.175C861.033 542.696 891.34 516.235 893.588 490.56L893.75 340.708ZM487.5 81.25L476.775 81.3042L460.796 81.575L445.033 82.0896L424.26 83.1188L403.867 84.5271L383.825 86.3146C375.023 87.1812 366.356 88.1562 357.798 89.2396L345.069 90.9187L326.327 93.7083L308.073 96.8229C294.585 99.2604 281.531 101.969 268.938 104.867L256.533 107.846L240.473 112.071C220.81 117.487 202.556 123.446 185.981 129.81L176.231 133.683L163.854 138.992C111.935 162.365 81.25 190.071 81.25 216.667C81.25 242.125 109.335 268.558 157.219 291.281L176.231 299.65C192.129 306.204 209.733 312.352 228.854 317.958L240.5 321.262L256.533 325.46C268.775 328.521 281.531 331.365 294.721 333.992L308.073 336.51L326.327 339.625L345.042 342.415C353.465 343.606 362.023 344.663 370.717 345.665L383.852 347.019L403.867 348.806L424.26 350.215L445.033 351.244C468.672 352.178 492.316 352.332 515.965 351.704L529.967 351.244L550.74 350.215L571.133 348.806L591.175 347.019C599.977 346.152 608.644 345.177 617.202 344.094L629.931 342.415L648.673 339.625L666.927 336.51C680.415 334.073 693.469 331.365 706.063 328.467L718.467 325.488L734.527 321.263C754.19 315.846 772.444 309.888 789.019 303.523L798.769 299.65L811.146 294.342C863.065 270.969 893.75 243.263 893.75 216.667C893.75 191.208 865.665 164.775 817.781 142.052L798.769 133.683C781.544 126.673 764.003 120.57 746.146 115.375L734.5 112.071L718.467 107.873C705.808 104.715 693.079 101.871 680.279 99.3418L666.927 96.823L648.673 93.7084L629.958 90.9188C621.415 89.7216 612.856 88.6382 604.283 87.6688L591.148 86.3147L571.133 84.5272L550.74 83.1189L529.967 82.0897C520.677 81.7105 511.279 81.4668 501.8 81.3313L487.5 81.25Z" fill-rule="evenodd" fill="#9C9CA2"/>
	<defs/>
</svg>
